<?xml version="1.0" encoding="UTF-8"?>
<svg id="Layer_1" xmlns="http://www.w3.org/2000/svg" version="1.1" viewBox="0 0 1400 700">
  <!-- Generator: Adobe Illustrator 29.8.2, SVG Export Plug-In . SVG Version: 2.1.1 Build 3)  -->
  <defs>
    <style>
      .st0 {
        fill: #fff;
      }

      .st1 {
        fill: #1f3140;
      }

      .st2 {
        isolation: isolate;
      }

      .st3 {
        fill: #16a085;
      }

      .st4 {
        fill: #c9d6df;
      }

      .st5 {
        fill: #eaf1f6;
      }
    </style>
  </defs>
  <rect class="st1" x="120" y="120" width="460" height="460" rx="48" ry="48"/>
  <rect class="st4" x="180" y="460" width="340" height="36"/>
  <rect class="st4" x="210" y="400" width="12" height="60"/>
  <rect class="st4" x="250" y="420" width="12" height="40"/>
  <rect class="st4" x="290" y="380" width="12" height="80"/>
  <rect class="st4" x="330" y="420" width="12" height="40"/>
  <rect class="st4" x="370" y="400" width="12" height="60"/>
  <rect class="st4" x="410" y="420" width="12" height="40"/>
  <rect class="st4" x="450" y="380" width="12" height="80"/>
  <rect class="st3" x="276" y="190" width="148" height="148" rx="12" ry="12"/>
  <g class="st2">
    <path class="st5" d="M645.5,177.8l10.6-15.7v75.8h-24.1v-80.4h35c7.7,0,14,1.2,19,3.5,5,2.3,8.7,5.7,11.1,10.3,2.4,4.5,3.6,10.1,3.6,16.8s-1.3,10.2-3.8,14.7c-2.5,4.6-6.2,8.2-11.1,11-4.9,2.8-10.8,4.2-17.9,4.2h-21.8v-19.4h19.2c4.2,0,7.2-.9,8.9-2.7,1.7-1.8,2.6-4.4,2.6-7.8s-.4-4.2-1.1-5.8c-.8-1.5-2-2.7-3.8-3.4-1.7-.8-4-1.1-6.9-1.1h-19.4Z"/>
    <path class="st5" d="M730,167.1h-22.8v-15h22.8v15ZM730,238h-22.8v-64.1h22.8v64.1Z"/>
    <path class="st5" d="M754.1,198.3l16.1,5.6-9.4,34h-25.6v-1.5l18.9-38.2ZM761.9,173.9l10,30.8,12.7-1.5,18.4,33.2v1.5h-26.4l-9.8-30.6-13,1.3-18.4-33.4v-1.5h26.4ZM766.2,214.8v-18h8.3v18h-8.3ZM784.4,213.6l-16.2-5.8,9.6-33.9h24.3v1.5l-17.7,38.2Z"/>
    <path class="st5" d="M836,240c-6.3,0-12-1.2-17-3.5-5-2.3-8.9-5.9-11.8-10.6-2.9-4.7-4.3-10.8-4.3-18.1s1.3-14,3.8-19.4c2.5-5.3,6.3-9.4,11.3-12.3,5-2.9,11.1-4.3,18.4-4.3s12.3,1.2,16.5,3.7c4.2,2.5,7.4,5.9,9.6,10.3,2.1,4.4,3.2,9.5,3.2,15.4s0,2.9,0,4.3c0,1.3-.2,2.9-.5,4.6h-46v-8.8h30.7l-5.1,2.7c.4-5.4-.1-9.2-1.7-11.6-1.6-2.4-4-3.6-7.4-3.6s-6.5,1.2-8.1,3.7c-1.7,2.5-2.5,6.9-2.5,13.2s.8,10.2,2.5,12.6c1.7,2.4,4.5,3.6,8.4,3.6s4-.3,5.2-.9c1.2-.6,2.2-1.4,2.9-2.4.7-1,1.2-2.1,1.6-3.2l18.9,5.1c-.9,3.5-2.4,6.7-4.5,9.7-2.1,3-5.1,5.4-8.9,7.2-3.8,1.8-9,2.7-15.4,2.7Z"/>
    <path class="st5" d="M896.7,152.1v85.9h-22.8v-85.9h22.8Z"/>
    <path class="st5" d="M941.5,240c-7,0-12.7-.7-17.3-2.1-4.6-1.4-8.2-3.2-11-5.6-2.8-2.3-4.8-5-6.2-7.9-1.3-2.9-2.2-6-2.5-9.2l22.9-5c.6,2.6,1.7,4.7,3.1,6.3,1.5,1.6,3.2,2.7,5.3,3.4,2.1.7,4.3,1,6.7,1s5.8-.4,7.5-1.2c1.7-.8,2.5-2.1,2.5-3.9s-.4-2.5-1.3-3.6c-.9-1-2.6-2-5-2.8-2.5-.8-6.1-1.6-10.9-2.2-7.5-1.2-13.4-3-17.6-5.3-4.2-2.3-7.2-5.2-9-8.8-1.8-3.6-2.7-7.7-2.7-12.3,0-8.1,2.9-14.4,8.6-18.8,5.7-4.4,14.4-6.6,26.1-6.6s14,1,18.8,3c4.9,2,8.5,4.8,11,8.2,2.5,3.5,4,7.6,4.6,12.2l-24,4.6c-.4-2.1-1.1-3.9-1.9-5.3-.9-1.4-2-2.4-3.6-3.1-1.5-.7-3.6-1.1-6.3-1.1s-5.6.5-7.1,1.4c-1.5.9-2.3,2.3-2.3,4.2s.3,1.9.9,2.9c.6.9,2,1.8,4.3,2.6,2.3.8,5.8,1.7,10.7,2.5,6.4,1.2,11.7,2.6,15.8,4.4,4.1,1.7,7.3,3.8,9.4,6,2.2,2.3,3.7,4.8,4.5,7.6.8,2.8,1.2,5.7,1.2,8.7,0,5.4-1.2,10-3.6,13.8-2.4,3.8-6.2,6.8-11.5,8.8s-12,3-20.3,3Z"/>
    <path class="st5" d="M1008.2,167.1h-22.8v-15h22.8v15ZM1008.2,238h-22.8v-64.1h22.8v64.1Z"/>
    <path class="st5" d="M1060.1,219.2h16.6v18.8h-59v-19.4l46.1-37.7-11.7,14.6-3.5-7.4,19.8-.3c-1.8.3-4.2.7-7.3,1.3-3.1.6-6.5,1.1-10.2,1.7-3.7.5-7.3,1-10.8,1.3-3.5.4-6.5.5-9.1.5h-12.3v-18.8h57.6v19.3l-47.2,38.9,12.3-16.1,3.5,7.4-20.1,1.5c2.3-.6,5-1.2,8-1.9,3-.6,6.1-1.2,9.4-1.8,3.3-.6,6.5-1,9.6-1.4,3.1-.4,5.8-.5,8.1-.5Z"/>
    <path class="st5" d="M1116.1,240c-6.3,0-12-1.2-17-3.5-5-2.3-8.9-5.9-11.8-10.6-2.9-4.7-4.3-10.8-4.3-18.1s1.3-14,3.8-19.4c2.5-5.3,6.3-9.4,11.3-12.3,5-2.9,11.1-4.3,18.4-4.3s12.3,1.2,16.5,3.7c4.2,2.5,7.4,5.9,9.6,10.3,2.1,4.4,3.2,9.5,3.2,15.4s0,2.9,0,4.3c0,1.3-.2,2.9-.5,4.6h-46v-8.8h30.7l-5.1,2.7c.4-5.4-.1-9.2-1.7-11.6-1.6-2.4-4-3.6-7.4-3.6s-6.5,1.2-8.1,3.7c-1.7,2.5-2.5,6.9-2.5,13.2s.8,10.2,2.5,12.6c1.7,2.4,4.5,3.6,8.4,3.6s4-.3,5.2-.9c1.2-.6,2.2-1.4,2.9-2.4.7-1,1.2-2.1,1.6-3.2l18.9,5.1c-.9,3.5-2.4,6.7-4.5,9.7-2.1,3-5.1,5.4-8.9,7.2-3.8,1.8-9,2.7-15.4,2.7Z"/>
  </g>
  <g class="st2">
    <path class="st0" d="M645.3,320.4c-1.9,0-3.5-.3-4.9-.9-1.4-.6-2.5-1.4-3.4-2.6-.9-1.1-1.6-2.5-2-4.1-.4-1.6-.6-3.4-.6-5.5s.4-5.1,1.2-7c.8-1.9,2.1-3.4,3.7-4.5,1.6-1,3.7-1.6,6.1-1.6s3.7.3,5.1,1c1.4.6,2.5,1.6,3.4,2.8.9,1.2,1.4,2.7,1.8,4.4l-1.6.4c-.6-2.4-1.6-4.2-2.9-5.3-1.4-1.1-3.2-1.6-5.6-1.6s-4.1.4-5.5,1.3c-1.4.9-2.4,2.2-3,3.9-.6,1.7-.9,3.8-.9,6.2s.3,4.5.9,6.3,1.6,3,3,3.9c1.4.9,3.1,1.3,5.3,1.3s3.3-.3,4.5-.8c1.2-.5,2.1-1.3,2.9-2.3.7-1.1,1.3-2.4,1.7-4.1l1.6.4c-.3,1.7-.9,3.2-1.8,4.5-.8,1.2-2,2.2-3.5,2.9-1.5.7-3.3,1-5.5,1Z"/>
    <path class="st0" d="M666.9,320.4c-1.3,0-2.4-.2-3.3-.5-.9-.3-1.6-.9-2.1-1.7-.5-.8-.7-1.8-.7-3.1s.6-2.7,1.7-3.7c1.1-1,2.8-1.5,5-1.5h7.9v1.3h-7.8c-1.7,0-2.9.3-3.8,1-.9.7-1.3,1.7-1.3,3s.1,1.3.4,1.9.8,1,1.5,1.3c.7.3,1.6.5,2.8.5s2.8-.3,4-.8c1.1-.5,2-1.2,2.6-2.1.6-.9.9-1.9.9-3v-5.8c0-1.7-.4-3.1-1.2-4-.8-.9-2.3-1.4-4.4-1.4s-2.8.4-3.7,1.1c-1,.7-1.7,1.7-2.1,2.9l-1.6-.7c.4-1,.9-1.8,1.7-2.5s1.6-1.3,2.6-1.7c1-.4,2.1-.6,3.3-.6s3.1.3,4.1.8c1.1.5,1.9,1.3,2.4,2.3.5,1,.8,2.3.8,3.8v12.9h-1.6v-5.4l.5,1.2h-1.3l.6-1.1c-.3,1.2-.8,2.2-1.4,3-.7.9-1.6,1.5-2.6,2-1.1.4-2.3.7-3.7.7Z"/>
    <path class="st0" d="M686.3,291.9v28.1h-1.7v-28.1h1.7Z"/>
    <path class="st0" d="M708.8,307.1c-.3-1.1-.6-2.1-1.1-2.9-.4-.8-1.1-1.4-2-1.8-.9-.4-2-.6-3.5-.6-2.4,0-4.2.7-5.4,2.2-1.2,1.5-1.8,3.6-1.8,6.4s.3,3.2.8,4.5,1.4,2.3,2.5,2.9c1.1.7,2.5,1,4.1,1s2.6-.2,3.4-.7,1.5-1.1,1.9-1.9c.4-.8.8-1.7,1.1-2.7l1.6.5c-.5,2-1.4,3.6-2.7,4.7-1.3,1.1-3.1,1.6-5.4,1.6s-3.7-.4-5.1-1.2c-1.4-.8-2.4-2-3.1-3.5-.7-1.5-1-3.3-1-5.4s.4-3.9,1.1-5.4,1.8-2.6,3.2-3.4c1.4-.8,2.9-1.2,4.8-1.2s3,.2,4.1.7c1.1.5,2,1.2,2.6,2.1.6,1,1.1,2.1,1.4,3.6l-1.6.4Z"/>
    <path class="st0" d="M731.9,315.3h-1.1l.6-.8c-.3,1-.8,1.9-1.6,2.9-.8.9-1.7,1.7-2.8,2.3-1.1.6-2.4.9-3.7.9s-2.5-.3-3.4-.8c-1-.5-1.7-1.3-2.2-2.2-.5-1-.8-2.2-.8-3.7v-13.1h1.7v12.9c0,1.1.2,2.1.5,2.9.3.8.8,1.4,1.5,1.8.7.4,1.7.6,2.9.6s3-.3,4.2-.9c1.2-.6,2.2-1.5,2.9-2.5s1.1-2.3,1.1-3.7v-11h1.7v19.4h-1.7v-7.5l.4,2.7Z"/>
    <path class="st0" d="M743.4,291.9v28.1h-1.7v-28.1h1.7Z"/>
    <path class="st0" d="M756.2,320.4c-1.3,0-2.4-.2-3.3-.5-.9-.3-1.6-.9-2.1-1.7-.5-.8-.7-1.8-.7-3.1s.6-2.7,1.7-3.7c1.1-1,2.8-1.5,5-1.5h7.9v1.3h-7.8c-1.7,0-2.9.3-3.8,1-.9.7-1.3,1.7-1.3,3s.1,1.3.4,1.9.8,1,1.5,1.3c.7.3,1.6.5,2.8.5s2.8-.3,4-.8,2-1.2,2.6-2.1c.6-.9.9-1.9.9-3v-5.8c0-1.7-.4-3.1-1.2-4-.8-.9-2.3-1.4-4.4-1.4s-2.8.4-3.7,1.1c-1,.7-1.7,1.7-2.1,2.9l-1.6-.7c.4-1,.9-1.8,1.7-2.5s1.6-1.3,2.6-1.7c1-.4,2.1-.6,3.3-.6s3.1.3,4.1.8c1.1.5,1.9,1.3,2.4,2.3.5,1,.8,2.3.8,3.8v12.9h-1.6v-5.4l.5,1.2h-1.3l.6-1.1c-.3,1.2-.8,2.2-1.4,3-.7.9-1.6,1.5-2.6,2-1.1.4-2.3.7-3.7.7Z"/>
    <path class="st0" d="M771.2,300.6h12.4v1.6h-12.4v-1.6ZM774.7,314.5v-19.7h1.7v19.8c0,1.4.3,2.5.9,3.2s1.5,1.1,2.8,1.1,1.2,0,1.6-.1c.5,0,1-.2,1.7-.4l.3,1.4c-.4.1-.8.2-1.2.3-.4,0-.8.2-1.2.2s-.9,0-1.3,0c-1.2,0-2.2-.2-3-.7-.8-.5-1.4-1.2-1.7-2.1s-.6-1.9-.6-3.1Z"/>
    <path class="st0" d="M796.9,320.4c-2,0-3.7-.4-5.1-1.2-1.4-.8-2.4-2-3.1-3.5-.7-1.5-1-3.3-1-5.4s.4-3.9,1.1-5.4c.7-1.5,1.8-2.6,3.2-3.4,1.4-.8,2.9-1.2,4.8-1.2s3.4.4,4.6,1.1c1.2.7,2.1,1.8,2.7,3.1.6,1.3.9,2.9.9,4.7v.7c0,.3,0,.6,0,.9h-16.3v-1.5h15.3l-.5.5c0-2.5-.5-4.5-1.5-5.9s-2.7-2.1-5.2-2.1-4.2.7-5.4,2.2c-1.2,1.5-1.8,3.6-1.8,6.4s.6,4.6,1.8,6.2c1.2,1.5,3.1,2.3,5.6,2.3s2.6-.2,3.4-.7c.8-.5,1.5-1.1,1.9-1.9.4-.8.8-1.7,1.1-2.7l1.6.5c-.3,1.3-.8,2.5-1.5,3.4s-1.5,1.7-2.6,2.2c-1.1.5-2.4.7-3.9.7Z"/>
    <path class="st0" d="M826.3,315.3h-1.1l.6-.8c-.3,1-.8,1.9-1.6,2.9-.8.9-1.7,1.7-2.8,2.3-1.1.6-2.4.9-3.7.9s-2.5-.3-3.4-.8c-1-.5-1.7-1.3-2.2-2.2-.5-1-.8-2.2-.8-3.7v-13.1h1.7v12.9c0,1.1.2,2.1.5,2.9.3.8.8,1.4,1.5,1.8.7.4,1.7.6,2.9.6s3-.3,4.2-.9c1.2-.6,2.2-1.5,2.9-2.5s1.1-2.3,1.1-3.7v-11h1.7v19.4h-1.7v-7.5l.4,2.7Z"/>
    <path class="st0" d="M836.8,305h.9l-.8,2.9c.1-1.2.4-2.3.7-3.2s.9-1.7,1.5-2.4c.6-.7,1.4-1.2,2.3-1.5.9-.3,1.8-.5,2.9-.5h.3v1.7h-.3c-1.6,0-2.9.3-3.9.9-1.1.6-1.9,1.5-2.4,2.7-.5,1.2-.8,2.8-.8,4.7v9.8h-1.7v-19.4h1.7v6.7l-.3-2.4Z"/>
    <path class="st0" d="M860,310.3c0-3.4.7-6,2-7.6,1.3-1.7,3.3-2.5,5.8-2.5s2.9.3,3.9.9,1.8,1.5,2.4,2.5c.6,1,1,2.1,1.3,3.3l-.2,2c0-2.1-.6-3.8-1.9-5.1-1.3-1.3-3-2-5.1-2s-3.8.7-4.9,2c-1.1,1.3-1.6,3.5-1.6,6.5s.5,5.2,1.6,6.6c1.1,1.3,2.7,2,4.9,2s2.7-.3,3.7-.9c1.1-.6,1.9-1.5,2.5-2.6.6-1.1.9-2.3.9-3.7l.3.7c0,1.1-.2,2.1-.6,3-.4,1-1,1.8-1.7,2.6-.7.7-1.6,1.3-2.5,1.8-1,.4-2,.7-3.2.7-2.4,0-4.2-.8-5.5-2.5-1.3-1.7-2-4.2-2-7.6ZM875.8,307.5h-.6l-.6-2.3h1.4l-.2,2.3ZM876,315.5h-1.4l.5-1.7h.9v1.7ZM875.2,320v-28.1h1.7v28.1h-1.7Z"/>
    <path class="st0" d="M892.5,320.4c-2,0-3.7-.4-5.1-1.2-1.4-.8-2.4-2-3.1-3.5-.7-1.5-1-3.3-1-5.4s.4-3.9,1.1-5.4c.7-1.5,1.8-2.6,3.2-3.4,1.4-.8,2.9-1.2,4.8-1.2s3.4.4,4.6,1.1c1.2.7,2.1,1.8,2.7,3.1.6,1.3.9,2.9.9,4.7v.7c0,.3,0,.6,0,.9h-16.3v-1.5h15.3l-.5.5c0-2.5-.5-4.5-1.5-5.9s-2.7-2.1-5.2-2.1-4.2.7-5.4,2.2c-1.2,1.5-1.8,3.6-1.8,6.4s.6,4.6,1.8,6.2c1.2,1.5,3.1,2.3,5.6,2.3s2.6-.2,3.4-.7c.8-.5,1.5-1.1,1.9-1.9.4-.8.8-1.7,1.1-2.7l1.6.5c-.3,1.3-.8,2.5-1.5,3.4s-1.5,1.7-2.6,2.2c-1.1.5-2.4.7-3.9.7Z"/>
    <path class="st0" d="M915.8,300.6h12.4v1.6h-12.4v-1.6ZM919.3,314.5v-19.7h1.7v19.8c0,1.4.3,2.5.9,3.2s1.5,1.1,2.8,1.1,1.2,0,1.6-.1c.5,0,1-.2,1.7-.4l.3,1.4c-.4.1-.8.2-1.2.3-.4,0-.8.2-1.2.2s-.9,0-1.3,0c-1.2,0-2.2-.2-3-.7-.8-.5-1.4-1.2-1.7-2.1s-.6-1.9-.6-3.1Z"/>
    <path class="st0" d="M938.2,320.4c-1.3,0-2.4-.2-3.3-.5-.9-.3-1.6-.9-2.1-1.7-.5-.8-.7-1.8-.7-3.1s.6-2.7,1.7-3.7,2.8-1.5,5-1.5h7.9v1.3h-7.8c-1.7,0-2.9.3-3.8,1-.9.7-1.3,1.7-1.3,3s.1,1.3.4,1.9c.3.5.8,1,1.5,1.3.7.3,1.6.5,2.8.5s2.8-.3,4-.8c1.1-.5,2-1.2,2.6-2.1.6-.9.9-1.9.9-3v-5.8c0-1.7-.4-3.1-1.2-4-.8-.9-2.3-1.4-4.4-1.4s-2.8.4-3.7,1.1c-1,.7-1.7,1.7-2.1,2.9l-1.6-.7c.4-1,.9-1.8,1.7-2.5.7-.7,1.6-1.3,2.6-1.7,1-.4,2.1-.6,3.3-.6s3.1.3,4.1.8c1.1.5,1.9,1.3,2.4,2.3.5,1,.8,2.3.8,3.8v12.9h-1.6v-5.4l.5,1.2h-1.3l.6-1.1c-.3,1.2-.8,2.2-1.4,3-.7.9-1.6,1.5-2.6,2s-2.3.7-3.7.7Z"/>
    <path class="st0" d="M958.1,295.1h-2.5v-2.5h2.5v2.5ZM957.6,320h-1.7v-19.4h1.7v19.4Z"/>
    <path class="st0" d="M968.4,291.9v28.1h-1.7v-28.1h1.7Z"/>
    <path class="st0" d="M979.1,291.9v28.1h-1.7v-28.1h1.7Z"/>
    <path class="st0" d="M995.3,320.4c-2,0-3.7-.4-5.1-1.2-1.4-.8-2.4-2-3.1-3.5-.7-1.5-1-3.3-1-5.4s.4-3.9,1.1-5.4c.7-1.5,1.8-2.6,3.2-3.4,1.4-.8,2.9-1.2,4.8-1.2s3.4.4,4.6,1.1c1.2.7,2.1,1.8,2.7,3.1.6,1.3.9,2.9.9,4.7v.7c0,.3,0,.6,0,.9h-16.3v-1.5h15.3l-.5.5c0-2.5-.5-4.5-1.5-5.9-1-1.4-2.7-2.1-5.2-2.1s-4.2.7-5.4,2.2c-1.2,1.5-1.8,3.6-1.8,6.4s.6,4.6,1.8,6.2c1.2,1.5,3.1,2.3,5.6,2.3s2.6-.2,3.4-.7,1.5-1.1,1.9-1.9.8-1.7,1.1-2.7l1.6.5c-.3,1.3-.8,2.5-1.5,3.4-.7,1-1.5,1.7-2.6,2.2-1.1.5-2.4.7-3.9.7Z"/>
    <path class="st0" d="M1019.3,310.3c0-3.4.7-6,2-7.6,1.3-1.7,3.3-2.5,5.8-2.5s2.9.3,3.9.9,1.8,1.5,2.4,2.5c.6,1,1,2.1,1.3,3.3l-.2,2c0-2.1-.6-3.8-1.9-5.1-1.3-1.3-3-2-5.1-2s-3.8.7-4.9,2c-1.1,1.3-1.6,3.5-1.6,6.5s.5,5.2,1.6,6.6c1.1,1.3,2.7,2,4.9,2s2.7-.3,3.7-.9c1.1-.6,1.9-1.5,2.5-2.6.6-1.1.9-2.3.9-3.7l.3.7c0,1.1-.2,2.1-.6,3-.4,1-1,1.8-1.7,2.6-.7.7-1.6,1.3-2.5,1.8-1,.4-2,.7-3.2.7-2.4,0-4.2-.8-5.5-2.5-1.3-1.7-2-4.2-2-7.6ZM1035.2,307.5h-.6l-.6-2.3h1.4l-.2,2.3ZM1035.4,315.5h-1.4l.5-1.7h.9v1.7ZM1034.6,320v-28.1h1.7v28.1h-1.7Z"/>
    <path class="st0" d="M1051.9,320.4c-2,0-3.7-.4-5.1-1.2-1.4-.8-2.4-2-3.1-3.5-.7-1.5-1-3.3-1-5.4s.4-3.9,1.1-5.4c.7-1.5,1.8-2.6,3.2-3.4,1.4-.8,2.9-1.2,4.8-1.2s3.4.4,4.6,1.1c1.2.7,2.1,1.8,2.7,3.1.6,1.3.9,2.9.9,4.7v.7c0,.3,0,.6,0,.9h-16.3v-1.5h15.3l-.5.5c0-2.5-.5-4.5-1.5-5.9-1-1.4-2.7-2.1-5.2-2.1s-4.2.7-5.4,2.2c-1.2,1.5-1.8,3.6-1.8,6.4s.6,4.6,1.8,6.2c1.2,1.5,3.1,2.3,5.6,2.3s2.6-.2,3.4-.7,1.5-1.1,1.9-1.9.8-1.7,1.1-2.7l1.6.5c-.3,1.3-.8,2.5-1.5,3.4-.7,1-1.5,1.7-2.6,2.2-1.1.5-2.4.7-3.9.7Z"/>
    <path class="st0" d="M1079,300.6v26.4h-1.7v-26.4h1.7ZM1078.4,307.5l-.2-2.3h1.4l-.6,2.3h-.6ZM1078.2,315.5v-1.7h.9l.5,1.7h-1.4ZM1094.3,310.3c0,3.4-.7,5.9-2,7.6-1.3,1.7-3.2,2.5-5.5,2.5s-2.2-.2-3.2-.7c-1-.4-1.8-1-2.5-1.8-.7-.7-1.3-1.6-1.7-2.6-.4-1-.6-2-.6-3l.3-.7c0,1.4.3,2.6.9,3.7s1.4,2,2.5,2.6,2.3.9,3.7.9c2.2,0,3.8-.7,4.9-2,1.1-1.3,1.6-3.5,1.6-6.6s-.5-5.2-1.6-6.5c-1.1-1.3-2.7-2-4.9-2s-2.7.3-3.7.9-1.9,1.5-2.5,2.5c-.6,1.1-.9,2.3-.9,3.7l-.2-2c.3-1.2.7-2.3,1.3-3.3.6-1,1.4-1.8,2.4-2.5,1-.6,2.3-.9,3.9-.9,2.5,0,4.5.8,5.8,2.5,1.3,1.7,2,4.2,2,7.6Z"/>
    <path class="st0" d="M1103.4,295.1h-2.5v-2.5h2.5v2.5ZM1103,320h-1.7v-19.4h1.7v19.4Z"/>
    <path class="st0" d="M1111.6,300.6l7,8.8,1,.3,7.5,9.5v.8h-1.3l-6.8-9.4-1-.2-7.6-8.9v-.8h1.3ZM1117.8,309.7l.8.9-6.8,9.4h-1.3v-.8l7.4-9.5ZM1118.2,310.9v-1.7h1.2v1.7h-1.2ZM1119.6,310.5l-.8-.8,7-9h1.3v.8l-7.5,9Z"/>
    <path class="st0" d="M1140.3,320.4c-2,0-3.7-.4-5.1-1.2-1.4-.8-2.4-2-3.1-3.5-.7-1.5-1-3.3-1-5.4s.4-3.9,1.1-5.4c.7-1.5,1.8-2.6,3.2-3.4,1.4-.8,2.9-1.2,4.8-1.2s3.4.4,4.6,1.1c1.2.7,2.1,1.8,2.7,3.1.6,1.3.9,2.9.9,4.7v.7c0,.3,0,.6,0,.9h-16.3v-1.5h15.3l-.5.5c0-2.5-.5-4.5-1.5-5.9-1-1.4-2.7-2.1-5.2-2.1s-4.2.7-5.4,2.2c-1.2,1.5-1.8,3.6-1.8,6.4s.6,4.6,1.8,6.2c1.2,1.5,3.1,2.3,5.6,2.3s2.6-.2,3.4-.7,1.5-1.1,1.9-1.9.8-1.7,1.1-2.7l1.6.5c-.3,1.3-.8,2.5-1.5,3.4-.7,1-1.5,1.7-2.6,2.2-1.1.5-2.4.7-3.9.7Z"/>
    <path class="st0" d="M1157.1,291.9v28.1h-1.7v-28.1h1.7Z"/>
  </g>
  <g class="st2">
    <path class="st5" d="M336.8,240.5l10.6-15.7v75.8h-24.1v-80.4h35c7.7,0,14,1.2,19,3.5,5,2.3,8.7,5.7,11.1,10.3,2.4,4.5,3.6,10.1,3.6,16.8s-1.3,10.2-3.8,14.7c-2.5,4.6-6.2,8.2-11.1,11-4.9,2.8-10.8,4.2-17.9,4.2h-21.8v-19.4h19.2c4.2,0,7.2-.9,8.9-2.7,1.7-1.8,2.6-4.4,2.6-7.8s-.4-4.2-1.1-5.8c-.8-1.5-2-2.7-3.8-3.4-1.7-.8-4-1.1-6.9-1.1h-19.4Z"/>
  </g>
  <path class="st0" d="M792.4,512.2h0c2.7,0,4.1,1.9,4.1,5.1v10.2h-5.3v-8.7c0-1.2-.4-1.9-1.6-1.9s-2,1-2,2.4v8.1h-5.3v-8.7c0-1.2-.4-1.9-1.6-1.9s-2,1-2,2.4v8.1h-5.3v-3c-.7,2.3-1.9,3.5-4.1,3.5s-3.7-1.6-4.5-4.3h-.2s0,8.5,0,8.5h-5.3v-9.2c-.6,3.2-2.3,4.9-4.5,4.9s-3.7-1.6-4.5-4.3h-.2s0,8.5,0,8.5h-5.3v-10.1s-2.6,0-2.6,0v31.4c0,10.5-6.9,16.6-15.7,16.6-8.9,0-14.2-4.6-15.5-12.7h-3.3c-1.2,8.1-6.3,12.7-15.2,12.7s-14-4.5-15.2-12.6h-6.1s0,8.7,0,8.7c0,1.8-1.4,3.3-3.3,3.3h-6.9v-12s-20,0-20,0v-9.4s18.8-44.6,18.8-44.6h11.3v44.6s12.4,0,12.4,0c1.8,0,3.3,1.5,3.3,3.3v2.8c0,4.7,2.1,6.4,5.4,6.4s5.4-1.7,5.4-6.4v-14.5c0-4.7-2.1-6.5-5.4-6.5s-5.4,1.8-5.4,6.5v2h-9.8s1.9-38.3,1.9-38.3h27.3v6c0,1.9-1.5,3.4-3.4,3.4h-14.6s-.9,15.7-.9,15.7c1.9-3.1,1.4-4.8,9.1-4.8,7.6,0,11.5,5.4,11.5,15.1v9.2s2.7,0,2.7,0v-28.8c0-10.5,7.9-16.6,15.7-16.6s12.9,3.6,14.9,10h8.8v3.6s.3,0,.3,0c.9-2.6,2.2-4.1,4.5-4.1s3.8,1.7,4.4,4.9v-4.4h5.3v3.6s.3,0,.3,0c.9-2.6,2.6-4.1,4.5-4.1s3.3,1.2,4.1,3.4v-3h5.1v4s.4,0,.4,0c.9-3,2.3-4.5,4.7-4.5s3.6,1.6,3.8,4.5h.4c.9-3,2.5-4.5,4.7-4.5h0ZM661,523.2l-10.5,24.8h10.5s0-24.8,0-24.8ZM731.7,554.3v-35.6c0-4.7-2.1-6.5-5.4-6.5s-5.4,1.8-5.4,6.5v35.6c0,4.7,2.1,6.5,5.4,6.5s5.4-1.8,5.4-6.5h0ZM752.1,523.4h0c1.6,0,2.2-1.1,2.2-3.2s-.9-3.2-2.2-3.2-2.1,1-2.1,2.7v1.2c0,1.6.8,2.6,2.1,2.6h0ZM766.6,523.4h0c1.6,0,2.2-1.1,2.2-3.2s-.9-3.2-2.2-3.2-2.1,1-2.1,2.7v1.2c0,1.6.8,2.6,2.1,2.6h0Z"/>
</svg>